PathFileType	4	(X/Y/Z)	Patient4_TMGait_0pt8_01_right_44.trc.trc
DataRate	CameraRate	NumFrames	NumMarkers	Units	OrigDataRate	OrigDataStartFrame	OrigNumFrames
86.419753086420	86.419753086420	4	33	mm	86.419753086420	18	       141
Frame#	Time	Sacral			L.Shoulder			Chest			R.Shoulder			Neck			R.ASIS			L.ASIS			R.Thigh.Superior			R.Thigh.Lateral			R.Thigh.Inferior			R.Patella			L.Thigh.Superior			L.Thigh.Lateral			L.Thigh.Inferior			L.Patella			L.Shank.Superior			L.Shank.Lateral			L.Shank.Inferior			R.Shank.Superior			R.Shank.Lateral			R.Shank.Inferior			R.Heel			R.Midfoot.Superior			R.Midfoot.Lateral			R.Toe			L.Heel			L.Midfoot.Lateral			L.Midfoot.Superior			L.Toe			L.Elbow			L.Wrist			R.Elbow			R.Wrist			
		X1	Y1	Z1	X2	Y2	Z2	X3	Y3	Z3	X4	Y4	Z4	X5	Y5	Z5	X6	Y6	Z6	X7	Y7	Z7	X8	Y8	Z8	X9	Y9	Z9	X10	Y10	Z10	X11	Y11	Z11	X12	Y12	Z12	X13	Y13	Z13	X14	Y14	Z14	X15	Y15	Z15	X16	Y16	Z16	X17	Y17	Z17	X18	Y18	Z18	X19	Y19	Z19	X20	Y20	Z20	X21	Y21	Z21	X22	Y22	Z22	X23	Y23	Z23	X24	Y24	Z24	X25	Y25	Z25	X26	Y26	Z26	X27	Y27	Z27	X28	Y28	Z28	X29	Y29	Z29	X30	Y30	Z30	X31	Y31	Z31	X32	Y32	Z32	X33	Y33	Z33	

18	49.656714285714	914.707016245416	1003.128953870693	439.357579358614	1119.810383921076	1434.975633542054	280.981638984911	1205.437774153840	1356.652060975718	447.520953176699	1108.274641855257	1425.551049312139	616.277150358674	1087.519451947915	1488.614245116885	436.848483710294	1136.065138852009	937.054847419505	569.087548729176	1133.989886788768	956.389305403929	294.130704588456	1214.061218361289	772.322570781217	541.726614808647	1181.115473842159	652.560663742558	622.859482666906	1269.364443009727	615.712441133643	541.177554578527	1309.041495805948	535.131955959788	562.416800172317	1128.966975981681	726.401078281627	323.868942047193	1007.294552307418	634.726320278452	263.514037749520	1064.556222009471	540.562449682795	329.525911400146	1048.951092507563	476.659427081161	339.858853187742	1016.953091765705	411.944977102479	335.095518900034	917.613149493438	303.414504194755	290.648823491434	960.735185604440	191.172955348625	365.937627174644	1295.352634918684	447.842485332637	575.493113702122	1247.536043674329	333.794855637061	642.890322626445	1320.305386113839	249.227953864577	593.186839739191	1236.886614184548	55.305019422116	569.817332410344	1395.078242306973	140.638105735113	609.137347950403	1322.092327366793	58.729687823413	642.417152765526	1521.787225686044	111.461922837029	632.964295099487	826.449095792866	39.913036920497	419.733174765180	896.552148228363	36.023595522206	336.159179479674	981.713195455495	95.849857730759	359.237918516443	1108.252589000642	42.186033469897	325.568162470028	1231.610674501477	1135.902982871305	112.124715334152	1485.774516171756	1130.017081398231	151.164144921028	931.560159009674	1127.272148879465	707.745457469064	856.149050742405	880.222841450143	728.725863387263	
19	49.668285714286	915.697040356660	1000.931521935240	440.581091273642	1120.033285462946	1433.168469956341	282.484096810971	1205.391114421381	1355.302015211440	449.320453219434	1107.534748487557	1424.402134515160	617.590649420712	1087.262482159414	1486.816940056999	438.137107126867	1136.821047698332	934.900793424428	570.916867565223	1135.276336010792	954.804430512077	295.907680851176	1213.484995982376	768.515329799973	543.459464277092	1178.564874670507	648.491320142999	623.357864430745	1266.756846092818	611.422798272982	541.829740327231	1305.470509422366	531.527016311504	562.154105755451	1128.125871279117	724.416472539731	325.056296433036	1005.499334199112	633.829817062785	264.370787485691	1061.614571970079	539.025041368276	330.453130009596	1045.322490872002	474.950610685771	340.653329044817	1012.368974461541	410.662075993619	335.717795859997	911.517302626014	303.536603274746	290.910549418533	952.948904792763	190.602904381422	366.047955086861	1293.082652004952	444.278977619705	574.895435016615	1246.455191981564	329.057883223772	640.966951890876	1320.914405082601	246.005930326125	591.081728152572	1240.688579669590	51.111911910950	565.950661344031	1397.257392569491	138.422833511465	606.499424135069	1325.270306337014	55.639415569725	639.150873569215	1524.275849228193	111.124970582026	631.233908531834	817.140914277399	40.089213198801	419.511046474317	887.299276857354	36.036793291947	336.053989617137	972.496885013132	95.810934360080	359.185940613764	1098.983189731423	41.893637316470	325.527814941823	1234.144837290793	1135.902281251782	113.126602686112	1487.584506977815	1140.247707385349	153.560110479574	925.865247808105	1130.432228914326	708.907992314371	846.190572303071	884.688209328811	729.656223851232	
20	49.679857142857	916.845545366056	998.703106771758	442.131033555148	1120.151913461612	1431.307389856466	284.044205451591	1205.364437866820	1354.023582429109	451.169785237562	1106.844976626521	1423.270126693379	618.992804926669	1086.975112957260	1485.018382351065	439.490954280771	1137.831399891306	932.758767934313	572.904971452131	1136.677249696511	953.187540643690	297.854062945708	1213.503800572140	764.986745602953	545.270137640771	1176.422198208169	644.538007422941	623.615858759756	1264.708557799379	607.408743058739	542.430607125986	1302.258666092637	527.806985664986	561.773796558653	1127.666897218710	722.441057562388	326.351470569380	1004.144363256278	632.866856930644	265.464655901157	1059.247281820233	537.422679051310	331.527334922315	1042.293030093655	473.103968280798	341.637440132666	1008.304722340337	409.233380077802	336.505485924416	905.783186826832	303.700590956560	291.306488061555	945.339893627845	190.002169965692	366.221385141134	1290.568432860331	440.384148855310	574.116150059410	1244.159011465880	324.422954127253	638.758933701587	1319.557134844618	242.335198551614	588.760756001230	1240.763133368801	47.720591508828	561.955842453854	1396.500303434899	135.199363989189	603.613539336323	1324.678923074763	52.567565976485	635.792390419595	1523.415335530538	108.423518579476	629.329711007615	807.829097756976	40.367734752564	419.238668422880	878.076040541283	36.079023631254	335.927854340253	963.322497700410	95.798349755005	359.128589741269	1089.745682902696	41.566113000317	325.476815523958	1236.163388237177	1135.473152643059	114.369807782540	1488.589443097630	1149.185722160439	156.014685442852	921.323248359850	1132.879696281777	710.146557074782	838.004547959809	888.272404761469	730.669736520386	
21	49.691428571429	918.130745927514	996.525796469660	443.994440793282	1120.197291755565	1429.441785097024	285.675489778248	1205.391075632952	1352.839044889512	453.073382663622	1106.254723605372	1422.167172968251	620.506146053177	1086.694757016578	1483.263448742343	440.929881979223	1139.085106006433	930.685202407528	575.028271138946	1138.169246839394	951.574600876442	299.952563839428	1214.082339491333	761.752259641367	547.166484007719	1174.619714954390	640.763254807960	623.673244973502	1263.181594829422	603.728947622577	543.031619200486	1299.401699811393	524.064311813622	561.315153312655	1127.579307482466	720.514540575969	327.720577869147	1003.197608455253	631.870285782364	266.791221425482	1057.449487667831	535.781687617163	332.719888986652	1039.872447806770	471.135136698321	342.769142102349	1004.745394955320	407.684839769326	337.434579042270	900.393484351495	303.947500195785	291.831996674459	937.906630713636	189.410505800022	366.436291256244	1287.891853571028	436.277600795152	573.215684666462	1240.888625892125	319.943624247562	636.415299152726	1316.550574748664	238.295965675098	586.335579135195	1237.550327998619	45.061950623893	558.060840609952	1393.274343051697	131.081770597529	600.577436690274	1320.843713996892	49.543751204468	632.509658393286	1519.766542105921	103.562573054342	627.242093238408	798.509666734391	40.808417551549	418.912143193247	868.880264246109	36.168041246024	335.776306555011	954.208427797859	95.819401905578	359.045972371645	1080.543694715121	41.213140677828	325.412884631582	1237.637185453904	1134.618221395353	115.853592040912	1488.867179031213	1156.770652992862	158.512273918565	917.967809647467	1134.517672035738	711.457337589106	831.596789299618	890.895401964768	731.802430304612	
